<?xml version="1.0" encoding="UTF-8"?>
<svg enable-background="new 0 0 1920 594.9" version="1.1" viewBox="0 0 1920 594.9" xml:space="preserve" xmlns="http://www.w3.org/2000/svg" xmlns:xlink="http://www.w3.org/1999/xlink">
<style type="text/css">
	.st0{fill:#FF5177;}
	.st1{opacity:0.2;clip-path:url(#d);}
	.st2{fill:none;stroke:#FF97AD;stroke-miterlimit:10;}
	.st3{fill:#3D1C0F;}
	.st4{fill:#F1C9A5;}
	.st5{opacity:0.1;fill:#DDAC8C;}
	.st6{fill:#FAE43E;}
	.st7{fill:#B3B10A;}
	.st8{opacity:0.5;fill:#FFFFFF;}
	.st9{fill:#388EBF;}
	.st10{fill:#2E150B;}
	.st11{fill:#976C4B;}
	.st12{fill:#262421;}
	.st13{fill:#FFFFFF;}
	.st14{fill:#CA9063;}
	.st15{fill:#654521;}
	.st16{fill:#F4D3B8;}
	.st17{fill:#F2CAAD;}
	.st18{fill:#FF9800;}
	.st19{fill:#8BC34A;}
	.st20{fill:#85562B;}
	.st21{fill:#EE2A7B;}
	.st22{fill:#733578;}
	.st23{fill:#172D39;}
	.st24{fill:#B2A1A1;}
	.st25{fill:#1C4760;}
	.st26{fill:#D1C6C6;}
</style>
<rect class="st0" x="4" y="2.8" width="1916" height="590.6"/>
	<defs>
		<rect id="c" x="4" y="2.8" width="1916" height="589.1"/>
	</defs>
	<clipPath id="d">
		<use xlink:href="#c"/>
	</clipPath>
	<g class="st1">
			<rect class="st2" x="-216.6" y="2.8" width="589.1" height="589.1"/>
			<line class="st2" x1="-216.6" x2="372.5" y1="563.9" y2="563.9"/>
			<line class="st2" x1="-216.6" x2="372.5" y1="535.8" y2="535.8"/>
			<line class="st2" x1="-216.6" x2="372.5" y1="507.8" y2="507.8"/>
			<line class="st2" x1="-216.6" x2="372.5" y1="479.7" y2="479.7"/>
			<line class="st2" x1="-216.6" x2="372.5" y1="451.7" y2="451.7"/>
			<line class="st2" x1="-216.6" x2="372.5" y1="423.6" y2="423.6"/>
			<line class="st2" x1="-216.6" x2="372.5" y1="395.6" y2="395.6"/>
			<line class="st2" x1="-216.6" x2="372.5" y1="367.5" y2="367.5"/>
			<line class="st2" x1="-216.6" x2="372.5" y1="339.5" y2="339.5"/>
			<line class="st2" x1="-216.6" x2="372.5" y1="311.4" y2="311.4"/>
			<line class="st2" x1="-216.6" x2="372.5" y1="283.4" y2="283.4"/>
			<line class="st2" x1="-216.6" x2="372.5" y1="255.3" y2="255.3"/>
			<line class="st2" x1="-216.6" x2="372.5" y1="227.3" y2="227.3"/>
			<line class="st2" x1="-216.6" x2="372.5" y1="199.2" y2="199.2"/>
			<line class="st2" x1="-216.6" x2="372.5" y1="171.2" y2="171.2"/>
			<line class="st2" x1="-216.6" x2="372.5" y1="143.1" y2="143.1"/>
			<line class="st2" x1="-216.6" x2="372.5" y1="115.1" y2="115.1"/>
			<line class="st2" x1="-216.6" x2="372.5" y1="87" y2="87"/>
			<line class="st2" x1="-216.6" x2="372.5" y1="59" y2="59"/>
			<line class="st2" x1="-216.6" x2="372.5" y1="30.9" y2="30.9"/>
			<line class="st2" x1="344.5" x2="344.5" y1="2.8" y2="592"/>
			<line class="st2" x1="316.4" x2="316.4" y1="2.8" y2="592"/>
			<line class="st2" x1="288.4" x2="288.4" y1="2.8" y2="592"/>
			<line class="st2" x1="260.3" x2="260.3" y1="2.8" y2="592"/>
			<line class="st2" x1="232.3" x2="232.3" y1="2.8" y2="592"/>
			<line class="st2" x1="204.2" x2="204.2" y1="2.8" y2="592"/>
			<line class="st2" x1="176.2" x2="176.2" y1="2.8" y2="592"/>
			<line class="st2" x1="148.1" x2="148.1" y1="2.8" y2="592"/>
			<line class="st2" x1="120.1" x2="120.1" y1="2.8" y2="592"/>
			<line class="st2" x1="92" x2="92" y1="2.8" y2="592"/>
			<line class="st2" x1="63.9" x2="63.9" y1="2.8" y2="592"/>
			<line class="st2" x1="35.9" x2="35.9" y1="2.8" y2="592"/>
			<line class="st2" x1="7.8" x2="7.8" y1="2.8" y2="592"/>
			<line class="st2" x1="-20.2" x2="-20.2" y1="2.8" y2="592"/>
			<line class="st2" x1="-48.3" x2="-48.3" y1="2.8" y2="592"/>
			<line class="st2" x1="-76.3" x2="-76.3" y1="2.8" y2="592"/>
			<line class="st2" x1="-104.4" x2="-104.4" y1="2.8" y2="592"/>
			<line class="st2" x1="-132.4" x2="-132.4" y1="2.8" y2="592"/>
			<line class="st2" x1="-160.5" x2="-160.5" y1="2.8" y2="592"/>
			<line class="st2" x1="-188.5" x2="-188.5" y1="2.8" y2="592"/>
			<rect class="st2" x="372.5" y="2.8" width="589.1" height="589.1"/>
			<line class="st2" x1="372.5" x2="961.6" y1="563.9" y2="563.9"/>
			<line class="st2" x1="372.5" x2="961.6" y1="535.8" y2="535.8"/>
			<line class="st2" x1="372.5" x2="961.6" y1="507.8" y2="507.8"/>
			<line class="st2" x1="372.5" x2="961.6" y1="479.7" y2="479.7"/>
			<line class="st2" x1="372.5" x2="961.6" y1="451.7" y2="451.7"/>
			<line class="st2" x1="372.5" x2="961.6" y1="423.6" y2="423.6"/>
			<line class="st2" x1="372.5" x2="961.6" y1="395.6" y2="395.6"/>
			<line class="st2" x1="372.5" x2="961.6" y1="367.5" y2="367.5"/>
			<line class="st2" x1="372.5" x2="961.6" y1="339.5" y2="339.5"/>
			<line class="st2" x1="372.5" x2="961.6" y1="311.4" y2="311.4"/>
			<line class="st2" x1="372.5" x2="961.6" y1="283.4" y2="283.4"/>
			<line class="st2" x1="372.5" x2="961.6" y1="255.3" y2="255.3"/>
			<line class="st2" x1="372.5" x2="961.6" y1="227.3" y2="227.3"/>
			<line class="st2" x1="372.5" x2="961.6" y1="199.2" y2="199.2"/>
			<line class="st2" x1="372.5" x2="961.6" y1="171.2" y2="171.2"/>
			<line class="st2" x1="372.5" x2="961.6" y1="143.1" y2="143.1"/>
			<line class="st2" x1="372.5" x2="961.6" y1="115.1" y2="115.1"/>
			<line class="st2" x1="372.5" x2="961.6" y1="87" y2="87"/>
			<line class="st2" x1="372.5" x2="961.6" y1="59" y2="59"/>
			<line class="st2" x1="372.5" x2="961.6" y1="30.9" y2="30.9"/>
			<line class="st2" x1="933.6" x2="933.6" y1="2.8" y2="592"/>
			<line class="st2" x1="905.5" x2="905.5" y1="2.8" y2="592"/>
			<line class="st2" x1="877.5" x2="877.5" y1="2.8" y2="592"/>
			<line class="st2" x1="849.4" x2="849.4" y1="2.8" y2="592"/>
			<line class="st2" x1="821.4" x2="821.4" y1="2.8" y2="592"/>
			<line class="st2" x1="793.3" x2="793.3" y1="2.8" y2="592"/>
			<line class="st2" x1="765.3" x2="765.3" y1="2.8" y2="592"/>
			<line class="st2" x1="737.2" x2="737.2" y1="2.8" y2="592"/>
			<line class="st2" x1="709.2" x2="709.2" y1="2.8" y2="592"/>
			<line class="st2" x1="681.1" x2="681.1" y1="2.8" y2="592"/>
			<line class="st2" x1="653.1" x2="653.1" y1="2.8" y2="592"/>
			<line class="st2" x1="625" x2="625" y1="2.8" y2="592"/>
			<line class="st2" x1="597" x2="597" y1="2.8" y2="592"/>
			<line class="st2" x1="568.9" x2="568.9" y1="2.8" y2="592"/>
			<line class="st2" x1="540.8" x2="540.8" y1="2.8" y2="592"/>
			<line class="st2" x1="512.8" x2="512.8" y1="2.8" y2="592"/>
			<line class="st2" x1="484.7" x2="484.7" y1="2.8" y2="592"/>
			<line class="st2" x1="456.7" x2="456.7" y1="2.8" y2="592"/>
			<line class="st2" x1="428.6" x2="428.6" y1="2.8" y2="592"/>
			<line class="st2" x1="400.6" x2="400.6" y1="2.8" y2="592"/>
			<rect class="st2" x="961.7" y="2.8" width="589.1" height="589.1"/>
			<line class="st2" x1="961.7" x2="1550.8" y1="563.9" y2="563.9"/>
			<line class="st2" x1="961.7" x2="1550.8" y1="535.8" y2="535.8"/>
			<line class="st2" x1="961.7" x2="1550.8" y1="507.8" y2="507.8"/>
			<line class="st2" x1="961.7" x2="1550.8" y1="479.7" y2="479.7"/>
			<line class="st2" x1="961.7" x2="1550.8" y1="451.7" y2="451.7"/>
			<line class="st2" x1="961.7" x2="1550.8" y1="423.6" y2="423.6"/>
			<line class="st2" x1="961.7" x2="1550.8" y1="395.6" y2="395.6"/>
			<line class="st2" x1="961.7" x2="1550.8" y1="367.5" y2="367.5"/>
			<line class="st2" x1="961.7" x2="1550.8" y1="339.5" y2="339.5"/>
			<line class="st2" x1="961.7" x2="1550.8" y1="311.4" y2="311.4"/>
			<line class="st2" x1="961.7" x2="1550.8" y1="283.4" y2="283.4"/>
			<line class="st2" x1="961.7" x2="1550.8" y1="255.3" y2="255.3"/>
			<line class="st2" x1="961.7" x2="1550.8" y1="227.3" y2="227.3"/>
			<line class="st2" x1="961.7" x2="1550.8" y1="199.2" y2="199.2"/>
			<line class="st2" x1="961.7" x2="1550.8" y1="171.2" y2="171.2"/>
			<line class="st2" x1="961.7" x2="1550.8" y1="143.1" y2="143.1"/>
			<line class="st2" x1="961.7" x2="1550.8" y1="115.1" y2="115.1"/>
			<line class="st2" x1="961.7" x2="1550.8" y1="87" y2="87"/>
			<line class="st2" x1="961.7" x2="1550.8" y1="59" y2="59"/>
			<line class="st2" x1="961.7" x2="1550.8" y1="30.9" y2="30.9"/>
			<line class="st2" x1="1522.8" x2="1522.8" y1="2.8" y2="592"/>
			<line class="st2" x1="1494.7" x2="1494.7" y1="2.8" y2="592"/>
			<line class="st2" x1="1466.7" x2="1466.7" y1="2.8" y2="592"/>
			<line class="st2" x1="1438.6" x2="1438.6" y1="2.8" y2="592"/>
			<line class="st2" x1="1410.6" x2="1410.6" y1="2.8" y2="592"/>
			<line class="st2" x1="1382.5" x2="1382.5" y1="2.8" y2="592"/>
			<line class="st2" x1="1354.5" x2="1354.5" y1="2.8" y2="592"/>
			<line class="st2" x1="1326.4" x2="1326.4" y1="2.8" y2="592"/>
			<line class="st2" x1="1298.4" x2="1298.4" y1="2.8" y2="592"/>
			<line class="st2" x1="1270.3" x2="1270.3" y1="2.8" y2="592"/>
			<line class="st2" x1="1242.3" x2="1242.3" y1="2.8" y2="592"/>
			<line class="st2" x1="1214.2" x2="1214.2" y1="2.8" y2="592"/>
			<line class="st2" x1="1186.2" x2="1186.2" y1="2.8" y2="592"/>
			<line class="st2" x1="1158.1" x2="1158.1" y1="2.8" y2="592"/>
			<line class="st2" x1="1130" x2="1130" y1="2.8" y2="592"/>
			<line class="st2" x1="1102" x2="1102" y1="2.8" y2="592"/>
			<line class="st2" x1="1073.9" x2="1073.9" y1="2.8" y2="592"/>
			<line class="st2" x1="1045.9" x2="1045.9" y1="2.8" y2="592"/>
			<line class="st2" x1="1017.8" x2="1017.8" y1="2.8" y2="592"/>
			<line class="st2" x1="989.8" x2="989.8" y1="2.8" y2="592"/>
			<rect class="st2" x="1550.8" y="2.8" width="589.1" height="589.1"/>
			<line class="st2" x1="1550.8" x2="2139.9" y1="563.9" y2="563.9"/>
			<line class="st2" x1="1550.8" x2="2139.9" y1="535.8" y2="535.8"/>
			<line class="st2" x1="1550.8" x2="2139.9" y1="507.8" y2="507.8"/>
			<line class="st2" x1="1550.8" x2="2139.9" y1="479.7" y2="479.7"/>
			<line class="st2" x1="1550.8" x2="2139.9" y1="451.7" y2="451.7"/>
			<line class="st2" x1="1550.8" x2="2139.9" y1="423.6" y2="423.6"/>
			<line class="st2" x1="1550.8" x2="2139.9" y1="395.6" y2="395.6"/>
			<line class="st2" x1="1550.8" x2="2139.9" y1="367.5" y2="367.5"/>
			<line class="st2" x1="1550.8" x2="2139.9" y1="339.5" y2="339.5"/>
			<line class="st2" x1="1550.8" x2="2139.9" y1="311.4" y2="311.4"/>
			<line class="st2" x1="1550.8" x2="2139.9" y1="283.4" y2="283.4"/>
			<line class="st2" x1="1550.8" x2="2139.9" y1="255.3" y2="255.3"/>
			<line class="st2" x1="1550.8" x2="2139.9" y1="227.3" y2="227.3"/>
			<line class="st2" x1="1550.8" x2="2139.9" y1="199.2" y2="199.2"/>
			<line class="st2" x1="1550.8" x2="2139.9" y1="171.2" y2="171.2"/>
			<line class="st2" x1="1550.8" x2="2139.9" y1="143.1" y2="143.1"/>
			<line class="st2" x1="1550.8" x2="2139.9" y1="115.1" y2="115.1"/>
			<line class="st2" x1="1550.8" x2="2139.9" y1="87" y2="87"/>
			<line class="st2" x1="1550.8" x2="2139.9" y1="59" y2="59"/>
			<line class="st2" x1="1550.8" x2="2139.9" y1="30.9" y2="30.9"/>
			<line class="st2" x1="2111.9" x2="2111.9" y1="2.8" y2="592"/>
			<line class="st2" x1="2083.8" x2="2083.8" y1="2.8" y2="592"/>
			<line class="st2" x1="2055.8" x2="2055.8" y1="2.8" y2="592"/>
			<line class="st2" x1="2027.7" x2="2027.7" y1="2.8" y2="592"/>
			<line class="st2" x1="1999.7" x2="1999.7" y1="2.8" y2="592"/>
			<line class="st2" x1="1971.6" x2="1971.6" y1="2.8" y2="592"/>
			<line class="st2" x1="1943.6" x2="1943.6" y1="2.8" y2="592"/>
			<line class="st2" x1="1915.5" x2="1915.5" y1="2.8" y2="592"/>
			<line class="st2" x1="1887.5" x2="1887.5" y1="2.8" y2="592"/>
			<line class="st2" x1="1859.4" x2="1859.4" y1="2.8" y2="592"/>
			<line class="st2" x1="1831.4" x2="1831.4" y1="2.8" y2="592"/>
			<line class="st2" x1="1803.3" x2="1803.3" y1="2.8" y2="592"/>
			<line class="st2" x1="1775.3" x2="1775.3" y1="2.8" y2="592"/>
			<line class="st2" x1="1747.2" x2="1747.2" y1="2.8" y2="592"/>
			<line class="st2" x1="1719.2" x2="1719.2" y1="2.8" y2="592"/>
			<line class="st2" x1="1691.1" x2="1691.1" y1="2.8" y2="592"/>
			<line class="st2" x1="1663.1" x2="1663.1" y1="2.8" y2="592"/>
			<line class="st2" x1="1635" x2="1635" y1="2.8" y2="592"/>
			<line class="st2" x1="1606.9" x2="1606.9" y1="2.8" y2="592"/>
			<line class="st2" x1="1578.9" x2="1578.9" y1="2.8" y2="592"/>
	</g>
		<ellipse class="st3" cx="965.7" cy="406.5" rx="68" ry="68.5"/>
		<path class="st4" d="m1045.3 531c-10.7-20.3-79.6-33-79.6-33s-68.9 12.7-79.6 33c-7.9 28.1-14.5 63.9-14.5 63.9h188.2c0.1 0-4.4-38.4-14.5-63.9z"/>
		<path class="st4" d="m965.7 498s68.9 12.7 79.6 33c10.1 25.6 14.5 63.9 14.5 63.9h-94.1v-96.9z"/>
		<rect class="st4" x="947" y="456.7" width="37.5" height="62.8"/>
		<rect class="st4" x="965.7" y="456.7" width="18.8" height="62.8"/>
		<path class="st5" d="M947,485.8c3.4,9.7,17,15.2,27,15.2c3.6,0,7.1-0.6,10.5-1.7v-42.6H947V485.8z"/>
		<path class="st4" d="m1014 417.1c0-39.2-21.6-61.5-48.2-61.5s-48.2 22.3-48.2 61.5 21.6 71 48.2 71 48.2-31.8 48.2-71z"/>
		<path class="st4" d="m1003.8 444.3c-8.7-0.9-14.6-10.2-13.2-20.7 1.5-10.5 9.7-18.3 18.5-17.5 8.7 0.9 14.6 10.2 13.2 20.7-1.5 10.6-9.8 18.4-18.5 17.5z"/>
		<path class="st4" d="m909.7 426.9c-1.5-10.5 4.4-19.8 13.1-20.7s17 6.9 18.5 17.5c1.5 10.5-4.4 19.8-13.2 20.7-8.7 0.8-16.9-7-18.4-17.5z"/>
		<path class="st4" d="m1014 417.1c0-39.2-21.6-61.5-48.2-61.5v132.5c26.6 0 48.2-31.8 48.2-71z"/>
	<path class="st3" d="m968.5 343.6c-28.8 0-54.9 32.1-54.9 62.5v0.3h11.9l10.4-20.4-7 20.4 12.6-2.4 1.8-17.9v18.1l9.4-1 5.3-18.7 0.1 18.1 12.8-0.4v-16.2l4.8 15.8 15.7-0.2 1.8-12.2 8.8 16 15.9 0.8v-0.3c0-30.2-20.6-62.3-49.4-62.3z"/>
	<path class="st3" d="m1016.2 376.8s15.6-34.3 38-16.3-16 73.3 18.1 69.8c-12.1 12.8-28.6 5.8-30-22.4s-14.2-18.2-14.2-18.2"/>
	<path class="st3" d="m911 379.8s-15.6-34.3-38-16.3 16 73.3-18.1 69.8c12.1 12.8 28.6 5.8 30-22.4s14.2-18.2 14.2-18.2"/>
	<path class="st6" d="m964.1 365.5c24.9 0 45.6 14.4 49.8 33.3 0.5-2.3 0.8-4.7 0.8-7.1 0-22.3-22.6-40.4-50.6-40.4-27.9 0-50.6 18.1-50.6 40.4 0 2.4 0.3 4.8 0.8 7.1 4.3-18.9 24.9-33.3 49.8-33.3z"/>
	<path class="st7" d="m1045.3 531c-2.8-5.4-9.7-10.2-18.3-14.4-13.5 2.5-35.9 4.1-61.3 4.1s-47.8-1.6-61.3-4.1c-8.6 4.2-15.5 9-18.3 14.4-7.9 28.1-14.5 63.9-14.5 63.9h188.2c0.1 0-4.4-38.4-14.5-63.9z"/>
<rect class="st8" x="965.7" y="4.3" width="954.3" height="590.6"/>
	<path class="st4" d="m1178.5 520.9c-12.4-23.5-92.2-38.2-92.2-38.2s-79.8 14.7-92.2 38.2c-9.2 32.6-16.8 74-16.8 74h218s-5.1-44.4-16.8-74z"/>
	<path class="st4" d="m1086.3 482.6s79.8 14.7 92.2 38.2c11.7 29.6 16.8 74 16.8 74h-109v-112.2z"/>
	<rect class="st4" x="1064.6" y="434.9" width="43.4" height="72.7"/>
	<rect class="st4" x="1086.3" y="434.9" width="21.7" height="72.7"/>
	<path class="st5" d="m1064.6 468.6c3.9 11.2 19.7 17.6 31.2 17.6 4.2 0 8.3-0.7 12.2-2v-49.3h-43.4v33.7z"/>
	<path class="st4" d="m1142.2 389c0-45.4-25-71.2-55.8-71.2s-55.8 25.8-55.8 71.2c0 61.1 25 82.2 55.8 82.2s55.8-23.6 55.8-82.2z"/>
	<path class="st4" d="m1133.7 420.5c-10.1-1.1-17-12-15.2-24.3 1.7-12.4 11.3-21.6 21.4-20.5s16.9 12 15.2 24.3c-1.7 12.4-11.3 21.6-21.4 20.5z"/>
	<path class="st4" d="m1018 400c-1.7-12.4 5.1-23.3 15.2-24.3 10.1-1.1 19.7 8.1 21.4 20.5s-5.1 23.3-15.2 24.3c-10.2 1.1-19.7-8.1-21.4-20.5z"/>
	<path class="st4" d="m1142.2 389c0-45.4-25-71.2-55.8-71.2v153.4c30.8 0 55.8-23.6 55.8-82.2z"/>
	<path class="st9" d="m1178.5 520.9c-8-15.1-43.5-26.5-68.1-32.8-1 12.5-11.4 22.3-24.1 22.3s-23.1-9.8-24.1-22.3c-24.6 6.3-60.1 17.7-68.1 32.8-9.2 32.6-16.8 74-16.8 74h218s-5.1-44.4-16.8-74z"/>
	<path class="st10" d="m1147.5 321.3c-7.9-12.5-46.2-20.5-85.4-16.2 0 0.2 0 0.4-0.1 0.6-47.6 11.8-44.7 53.2-30.7 75.3 0.3 6.6 0.7 14.1 1.2 23.1 0 0 6.8-13.1 10.3-38.3 0.6-1.2 1.3-2.4 2-3.6 22.9 20.8 49.8 23.7 85.1-1.3 0.9 20.7 6.9 33.6 14 43.1 0.8-6.3 1.5-11.9 2.1-17.1 12.5-21.9 8.8-54 1.5-65.6z"/>
<rect class="st8" x="1086.3" y="4.3" width="833.7" height="590.6"/>
		<path class="st4" d="m1356 491.7c-17.3-32.8-128.6-53.3-128.6-53.3s-111.3 20.6-128.6 53.3c-12.8 45.5-23.5 103.2-23.5 103.2h304c0.2 0-7.1-61.9-23.3-103.2z"/>
		<path class="st4" d="m1227.4 438.4s111.3 20.6 128.6 53.3c16.3 41.3 23.5 103.2 23.5 103.2h-152v-156.5z"/>
		<rect class="st4" x="1197.1" y="371.8" width="60.6" height="101.4"/>
		<rect class="st4" x="1227.4" y="371.8" width="30.3" height="101.4"/>
		<path class="st5" d="m1197.1 418.7c5.4 15.6 27.4 24.6 43.6 24.6 5.8 0 11.5-1 17-2.8v-68.8h-60.6v47z"/>
		<path class="st4" d="m1305.3 307.8c0-63.3-34.9-99.3-77.9-99.3s-77.9 36-77.9 99.3c0 85.2 34.9 114.7 77.9 114.7 43-0.1 77.9-33.1 77.9-114.7z"/>
		<path class="st4" d="m1286 351.7c-14.1-1.5-23.6-16.7-21.3-34 2.4-17.3 15.7-30.1 29.9-28.6 14.1 1.5 23.6 16.7 21.2 34-2.3 17.2-15.6 30.1-29.8 28.6z"/>
		<path class="st4" d="m1139.5 323.1c-2.4-17.3 7.1-32.5 21.2-34s27.5 11.4 29.9 28.6c2.4 17.3-7.2 32.5-21.3 34-14 1.5-27.4-11.4-29.8-28.6z"/>
		<path class="st4" d="m1305.3 307.8c0-63.3-34.9-99.3-77.9-99.3v214c43-0.1 77.9-33.1 77.9-114.7z"/>
	<path class="st11" d="m1356 491.7c-10.1-19.1-52.2-34.1-85.5-43.2l-43 49.2-43-49.2c-33.3 9.1-75.4 24.1-85.5 43.2-12.8 45.5-23.5 103.2-23.5 103.2h304s-7.3-61.9-23.5-103.2z"/>
	<path class="st12" d="m1159.5 340.7s-2.7-77.8 47.3-68.5c-0.6 18.8 30.1 10.1 30.1 10.1s40.3-20 35.2-63.3c-60.8-32.4-108.1 5.2-119.1 22.7-11 17.4-16.2 68.6 6.5 99z"/>
	<path class="st12" d="m1264.3 236.5c-15.3 21.4 30.4 48.6 30.4 100.1 18.1-26.5 37.5-112.4-22.7-117.6-5.1 9.7-7.7 17.5-7.7 17.5z"/>
	<path class="st13" d="m1283 508l-33.7-31.3-22 20.9 36.6-52.2s11.9 1.3 16.2 14.3c1.4 20.4 2.9 48.3 2.9 48.3z"/>
	<polygon class="st14" points="1215.5 594.9 1227.4 594.9 1227.4 497.6 1215.5 486.3"/>
	<path class="st13" d="m1171.7 508l33.7-31.3 22 20.9-36.6-52.2s-11.9 1.3-16.2 14.3c-1.3 20.4-2.9 48.3-2.9 48.3z"/>
<rect class="st8" x="1227.4" y="4.3" width="692.6" height="590.6"/>
	<path class="st15" d="m1405.5 398.6c-36.7-8.1 19.3-13.1 20.9-16.6 7.4-15.9 12.7-32.6 17.7-49.3 5.1-0.7 20.8-12 25.9-12.7-0.1 18.3-22.6 47-31.4 55.8-7 6.9-24.7 20.7-33.1 22.8z"/>
	<path class="st15" d="m1354.1 424.4c-7.2 17.3-14.5 34.6-21.7 51.9-1.9 0.9-3.8 1.7-5.6 2.6-2.3-12.5-13.8-23.9-3.6-37.8 1.6-2.2 1.5-8-0.2-10.2-12.7-15.7 3-29.4 2.5-44.2 0-0.5 2.6-1.1 4-1.6 9.1 7.1 18.2 14.2 27.2 21.3 1.6 6.3-2.1 11.9-2.6 18z"/>
	<path class="st16" d="m1511.2 482.1c-18.3-34.7-136.2-56.5-136.2-56.5s-117.8 21.8-136.2 56.5c-13.5 48.2-24.9 109.3-24.9 109.3h322.2s-7.7-65.6-24.9-109.3z"/>
	<path class="st16" d="m1375 425.6s117.8 21.8 136.2 56.5c17.2 43.7 24.9 109.3 24.9 109.3h-161.1v-165.8z"/>
	<rect class="st16" x="1343" y="355.1" width="64.2" height="107.4"/>
	<rect class="st16" x="1375" y="355.1" width="32.1" height="107.4"/>
	<path class="st17" d="m1343 404.8c5.8 16.6 29.1 26.1 46.2 26.1 6.2 0 12.2-1 18-2.9v-72.9h-64.2v49.7z"/>
	<path class="st16" d="m1457.5 287.3c0-67.1-36.9-105.2-82.5-105.2s-82.5 38.1-82.5 105.2 36.9 121.5 82.5 121.5 82.5-54.4 82.5-121.5z"/>
	<path class="st4" d="m1445 333.8c-15-1.7-25.1-18.8-22.5-38.2 2.5-19.5 16.7-33.9 31.6-32.2s25 18.8 22.5 38.2-16.7 33.9-31.6 32.2z"/>
	<path class="st16" d="m1274.1 301.6c-2.5-19.5 7.6-36.6 22.5-38.2 15-1.7 29.1 12.8 31.6 32.2s-7.6 36.6-22.5 38.2c-15 1.7-29.1-12.8-31.6-32.2z"/>
	<path class="st16" d="m1457.5 287.3c0-67.1-36.9-105.2-82.5-105.2v226.7c45.6 0 82.5-54.4 82.5-121.5z"/>
	<path class="st18" d="m1301.1 445c11.5 13.4 49.5 48.2 73.9 48.2 32.1 0 84.4-44.4 84.4-44.4l-13-4.6c-16.2-7.6-31.5-10.8-40.5-11.6-31.9 41.5-63 0.6-63 0.6-10.7 0.8-29.4 5.9-41.8 11.8z"/>
	<path class="st19" d="m1511.2 482.1c-6.2-11.7-23.8-22-44.3-30.4-11.3 40.1-48.2 69.4-91.8 69.4-43.7 0-80.5-29.4-91.8-69.4-20.6 8.4-38.1 18.7-44.3 30.4-13.5 48.2-24.9 109.3-24.9 109.3h322s-7.7-65.6-24.9-109.3z"/>
	<path class="st15" d="m1385.5 190.7c-5.5-10.7-21.1-20-21.1-32.3 39.9-0.4 81 19.8 92 56.3 1.5 4.9 3.1 9.8 4.7 14.8 1.3 14.5 18.6 30.9 10.8 46.4-9.2 1-20.2-5.8-24.5-14.2-5.7-11-12.5-21.5-18.7-32.3-10-17.7-24.2-30.8-43.2-38.7z"/>
	<path class="st20" d="m1386.9 190.7c-9.6-19-3.1-30.1-22.5-32.3-8.4-1-25.2 5.9-32.7 9.2-22.6 9.9-40.6 26.5-53 47.8-14.5 24.8-21.8 56-20.4 84.7 1.5 31.6 18.5 57.4 23.6 87 3.8 22.1-6.2 55.2 0 75.4 1.6 5.1 7.1 10.3 8.3 14.6 2.7-0.1 5.1 0.7 7.3 2.4-2.2 5.3-3.1 10.8-2.8 16.6 6 26 11.5 55.9 21.9 79.9 8.7 20.1 7.8 15.5 32.4 15.5-18.1-26.6-13.9-67.5-20.4-97.4-6.7-30.9-2.8-61.2-3.8-93.5-0.5-17.9 6.5 0.4-1.8-22.6-4.1-11.3-14-25.8-20.3-35.8-13.7-21.5-13.6-16.5-6.8-40.5 7.6-26.5 10.4-33.8 35.4-47.5 26.1-14.5 61.5-25.1 55.6-63.5-5.4-10.6 1.7 10.8 0 0z"/>
<rect class="st8" x="1376.2" y="4.3" width="543.8" height="590.6"/>
	<path class="st16" d="m1688.6 471.3c-20.9-39.2-155.5-63.7-155.5-63.7s-134.6 24.6-155.5 63.7c-15.5 54.3-28.4 123.4-28.4 123.4h367.8s-8.8-74.1-28.4-123.4z"/>
	<path class="st16" d="m1533.1 407.5s134.6 24.6 155.5 63.7c19.7 49.4 28.4 123.4 28.4 123.4h-183.9v-187.1z"/>
	<rect class="st16" x="1496.4" y="327.9" width="73.3" height="121.2"/>
	<rect class="st16" x="1533.1" y="327.9" width="36.6" height="121.2"/>
	<path class="st17" d="m1496.4 384.1c6.6 18.7 33.2 29.4 52.7 29.4 7.1 0 13.9-1.2 20.6-3.3v-82.3h-73.3v56.2z"/>
	<path class="st16" d="m1627.3 251.5c0-75.7-42.2-118.7-94.2-118.7s-94.2 43-94.2 118.7 42.2 137.1 94.2 137.1c52-0.1 94.2-61.4 94.2-137.1z"/>
	<path class="st4" d="m1612.9 303.9c-17.1-1.9-28.6-21.2-25.7-43.1 2.9-22 19-38.3 36.1-36.4s28.6 21.2 25.7 43.1c-2.8 22-19 38.3-36.1 36.4z"/>
	<path class="st16" d="m1417.8 267.6c-2.9-22 8.6-41.3 25.7-43.1 17.1-1.9 33.3 14.4 36.1 36.4 2.9 21.9-8.7 41.3-25.7 43.1-17.1 1.8-33.2-14.5-36.1-36.4z"/>
	<path class="st16" d="m1627.3 251.5c0-75.7-42.2-118.7-94.2-118.7v255.8c52-0.1 94.2-61.4 94.2-137.1z"/>
	<path class="st3" d="m1471.7 355.5s-23.8-32.7-14.8-75.8 31.6-50.6 31.6-69.9c37.6 44.6 53.9-7 105.1 19.3 18.1 10.4 31.4 79 15.1 104.2 76.7-41.6 52.7-208.6-40.5-226-191.1-36-254.4 239.2-96.5 248.2z"/>
	<path class="st21" d="m1533.1 179.7c48.6 0 89 34.7 97.2 80.5 1-5.6 1.6-11.3 1.6-17.2 0-53.9-44.2-97.6-98.8-97.6s-98.8 43.7-98.8 97.6c0 5.9 0.6 11.6 1.6 17.2 8.2-45.8 48.5-80.5 97.2-80.5z"/>
	<path class="st21" d="m1448.7 429.4c13.2 15.1 56.5 54.4 84.4 54.4 36.6 0 96.3-50.2 96.3-50.2l-14.8-5.2c-18.6-8.5-36-12.2-46.2-13.1-36.4 46.8-71.9 0.7-72 0.7-12.3 1.1-33.6 6.8-47.7 13.4z"/>
	<path class="st22" d="m1688.6 471.3c-7.1-13.2-27.2-24.8-50.6-34.3-13 45.2-55 78.3-104.9 78.3s-91.9-33.1-104.9-78.3c-23.5 9.5-43.6 21.1-50.6 34.3-15.5 54.3-28.4 123.4-28.4 123.4h367.8s-8.8-74.1-28.4-123.4z"/>
<rect class="st8" x="1536.1" y="4.3" width="383.9" height="590.6"/>
		<path class="st4" d="m1872.4 455c-23.4-44.4-174.2-72.2-174.2-72.2s-150.7 27.8-174.2 72.2c-17.3 61.6-31.8 139.9-31.8 139.9h412s-9.8-83.9-31.8-139.9z"/>
		<path class="st4" d="m1698.2 382.8s150.7 27.9 174.2 72.2c22 55.9 31.8 139.9 31.8 139.9h-206v-212.1z"/>
		<rect class="st4" x="1657.2" y="292.6" width="82.1" height="137.4"/>
		<rect class="st4" x="1698.2" y="292.6" width="41" height="137.4"/>
		<path class="st5" d="m1657.2 356.2c7.4 21.2 37.2 33.3 59 33.3 7.9 0 15.6-1.3 23-3.8v-93.2h-82.1v63.7z"/>
		<path class="st4" d="m1803.7 205.9c0-85.8-47.2-134.6-105.5-134.6s-105.5 48.8-105.5 134.6c0 115.4 47.2 155.3 105.5 155.3s105.5-44.7 105.5-155.3z"/>
		<path class="st4" d="m1787.7 265.4c-19.1-2-32-22.6-28.8-46s21.3-40.8 40.5-38.8c19.1 2 32 22.6 28.8 46-3.3 23.4-21.4 40.8-40.5 38.8z"/>
		<path class="st4" d="m1574.1 221.6c-3.2-23.4 9.7-44 28.8-46s37.3 15.4 40.5 38.8-9.7 44-28.8 46c-19.2 1.9-37.3-15.4-40.5-38.8z"/>
		<path class="st4" d="m1803.7 205.9c0-85.8-47.2-134.6-105.5-134.6v289.9c58.3 0 105.5-44.7 105.5-155.3z"/>
	<path class="st23" d="m1872.4 455c-13.7-25.9-70.8-46.2-115.9-58.6l-58.3 198.4-58.3-198.4c-45.1 12.4-102.2 32.7-115.9 58.6-17.3 61.6-31.8 139.9-31.8 139.9h412s-9.8-83.9-31.8-139.9z"/>
	<polygon class="st24" points="1638 396.5 1698.2 594.9 1756.7 396.5 1698.2 463.1"/>
	<path class="st25" d="m1689.8 585.5l-77.9-86.7c-1.3-1.5-0.8-3.8 1.1-4.5l23.1-8.8c1.8-0.7 2.4-2.9 1.2-4.4l-49.4-63.9c-1.2-1.5-0.6-3.7 1.2-4.4 4.8-1.8 13.3-5.1 17.8-6.7 12.4-4.7 24.1-7.7 29.1-8.8 1.5-0.3 2.9 0.5 3.3 1.9l55.2 183.6c0.9 2.9-2.7 4.9-4.7 2.7z"/>
	<path class="st26" d="m1623.3 476.6l44.8-41.7c0.1-0.1 0.3-0.1 0.4 0l28.2 26.8c0.2 0.2 0.6-0.1 0.4-0.3l-39.9-69.3c-0.1-0.1-0.2-0.2-0.3-0.1l-24.9 6.3c-0.1 0-0.2 0.1-0.2 0.3-1.7 25.7-8.1 71.2-9 77.7 0 0.3 0.3 0.4 0.5 0.3z"/>
	<path class="st12" d="m1814.1 186.6s-18.8-14.2-26.9 27.5c2.6-39.2 0.7-93.2-31.1-103-17.7 31.8-87.5 52.2-133.4 40.9-22.8 1.3-4 9.9-19.1 73.4 0.7-28.9 0.7-46.6-17.7-40.9-4.9-60.7 28.3-137.6 117.9-137.6 89.8-0.2 119.4 60.6 110.3 139.7z"/>
	<path class="st25" d="m1705.6 585.1l77.9-86.7c1.3-1.5 0.8-3.8-1.1-4.5l-23.1-8.8c-1.8-0.7-2.4-2.9-1.2-4.4l49.4-63.9c1.2-1.5 0.6-3.7-1.2-4.4-4.8-1.8-13.3-5.1-17.8-6.7-12.4-4.7-24.1-7.7-29.1-8.8-1.5-0.3-2.9 0.5-3.3 1.9l-55.2 183.6c-0.9 2.9 2.7 5 4.7 2.7z"/>
	<path class="st26" d="m1772.1 476.2l-44.8-41.7c-0.1-0.1-0.3-0.1-0.4 0l-28.2 26.8c-0.2 0.2-0.6-0.1-0.4-0.3l39.9-69.3c0.1-0.1 0.2-0.2 0.3-0.1l24.9 6.3c0.1 0 0.2 0.1 0.2 0.3 1.7 25.7 8.1 71.2 9 77.7 0 0.3-0.3 0.5-0.5 0.3z"/>
</svg>
