<svg id="Capa_1" data-name="Capa 1" xmlns="http://www.w3.org/2000/svg" viewBox="0 0 144.6 168"><defs><style>.cls-1{fill:#1d1d1b;}.cls-2{fill:#fcea10;}.cls-3{fill:#be1622;}</style></defs><title>LogoCV_2</title><polygon class="cls-1" points="58.7 164 39.3 26 30.3 26 30.3 4 59.9 4 72.3 112 84.5 4 114.3 4 114.3 26 105.3 26 84.5 164 58.7 164"/><path class="cls-1" d="M316.12,256.5H286.86l-19.4-138H258.2v-26h33.38l10.6,92.33L312.61,92.5H346.2v26h-9.28Zm-25.78-4h22.34l20.8-138h8.72v-18h-26l-14,123.67L288,96.5H262.2v18h8.74Z" transform="translate(-229.9 -90.5)"/><path class="cls-1" d="M316.12,256.5H286.86l-19.4-138H258.2v-26h33.38l10.6,92.33L312.61,92.5H346.2v26h-9.28Zm-25.78-4h22.34l20.8-138h8.72v-18h-26l-14,123.67L288,96.5H262.2v18h8.74Z" transform="translate(-229.9 -90.5)"/><path class="cls-1" d="M317.84,258.5H285.12l-19.4-138H256.2v-30h37.16l8.81,76.65,8.65-76.65H348.2v30h-9.56Zm-29.24-4h0Zm3.47-4H311l20.8-138h8.44v-14H318L302.23,237.85l-16-139.35h-22v14h8.47Zm-2.27-156,12.4,108h0Zm24.6,0-9,79.78Zm20.8,22h9v0Zm-75,0h0Z" transform="translate(-229.9 -90.5)"/><polygon class="cls-2" points="58.7 164 39.3 26 30.3 26 30.3 4 59.9 4 72.3 112 84.5 4 114.3 4 114.3 26 105.3 26 84.5 164 58.7 164"/><path class="cls-2" d="M316.12,256.5H286.86l-19.4-138H258.2v-26h33.38l10.6,92.33L312.61,92.5H346.2v26h-9.28Zm-25.78-4h22.34l20.8-138h8.72v-18h-26l-14,123.67L288,96.5H262.2v18h8.74Z" transform="translate(-229.9 -90.5)"/><polygon class="cls-3" points="58.7 164 39.3 26 30.3 26 30.3 4 59.9 4 72.3 112 84.5 4 114.3 4 114.3 26 105.3 26 84.5 164 58.7 164"/><polygon class="cls-1" points="4 45.41 32.9 35.5 115.46 35.5 140.6 45.41 140.6 62.67 111.44 62.67 111.44 49.66 33.17 49.66 33.17 126.78 111.44 126.78 111.44 109.53 140.6 109.53 140.6 128.59 115.46 138.5 32.9 138.5 4 128.59 4 45.41"/><path class="cls-1" d="M345.74,231H262.46L231.9,220.51v-86L262.46,124h83.28l26.76,10.55v20.62H339.33v-13H265.06v73.12h74.27V198H372.5v22.42Zm-82.61-4H345l23.52-9.27V202H343.33v17.25H261.06V138.16h82.27v13H368.5v-13.9L345,128H263.13l-27.23,9.34v80.32Z" transform="translate(-229.9 -90.5)"/><path class="cls-1" d="M345.74,231H262.46L231.9,220.51v-86L262.46,124h83.28l26.76,10.55v20.62H339.33v-13H265.06v73.12h74.27V198H372.5v22.42Zm-82.61-4H345l23.52-9.27V202H343.33v17.25H261.06V138.16h82.27v13H368.5v-13.9L345,128H263.13l-27.23,9.34v80.32Z" transform="translate(-229.9 -90.5)"/><path class="cls-1" d="M346.12,233h-84L229.9,221.94V133.06L262.13,122h84l28.38,11.19v24H337.33v-13H267.06v69.12h70.27V196H374.5v25.78Zm-83.33-4h0Zm.67-4H344.6l21.9-8.64V204H345.33v17.25H259.06V136.16h86.27v13H366.5V138.64L344.6,130H263.46l-25.56,8.77v77.46Zm107-25v19.06l-6.45,2.54,6.45-2.54ZM263.06,217.28V140.16h0Zm78.27-64.11H370.5V135.91l-6.45-2.54,6.45,2.54v17.26Z" transform="translate(-229.9 -90.5)"/><polygon class="cls-2" points="4 45.41 32.9 35.5 115.46 35.5 140.6 45.41 140.6 62.67 111.44 62.67 111.44 49.66 33.17 49.66 33.17 126.78 111.44 126.78 111.44 109.53 140.6 109.53 140.6 128.59 115.46 138.5 32.9 138.5 4 128.59 4 45.41"/><path class="cls-2" d="M345.74,231H262.46L231.9,220.51v-86L262.46,124h83.28l26.76,10.55v20.62H339.33v-13H265.06v73.12h74.27V198H372.5v22.42Zm-82.61-4H345l23.52-9.27V202H343.33v17.25H261.06V138.16h82.27v13H368.5v-13.9L345,128H263.13l-27.23,9.34v80.32Z" transform="translate(-229.9 -90.5)"/><polygon class="cls-3" points="4 45.41 32.9 35.5 115.46 35.5 140.6 45.41 140.6 62.67 111.44 62.67 111.44 49.66 33.17 49.66 33.17 126.78 111.44 126.78 111.44 109.53 140.6 109.53 140.6 128.59 115.46 138.5 32.9 138.5 4 128.59 4 45.41"/></svg>